<mxfile host="65bd71144e">
    <diagram id="9y-rD1MpkqkdoQgiFF3M" name="第 1 页">
        <mxGraphModel dx="1215" dy="1015" grid="0" gridSize="10" guides="1" tooltips="1" connect="1" arrows="1" fold="1" page="1" pageScale="1" pageWidth="827" pageHeight="1169" math="0" shadow="0">
            <root>
                <mxCell id="0"/>
                <mxCell id="1" parent="0"/>
                <mxCell id="2" value="appevent" style="rounded=0;whiteSpace=wrap;html=1;" vertex="1" parent="1">
                    <mxGeometry x="353" y="489" width="120" height="60" as="geometry"/>
                </mxCell>
                <mxCell id="7" style="edgeStyle=none;html=1;entryX=0.5;entryY=0;entryDx=0;entryDy=0;curved=1;" edge="1" parent="1" source="3" target="2">
                    <mxGeometry relative="1" as="geometry">
                        <Array as="points">
                            <mxPoint x="333" y="409"/>
                        </Array>
                    </mxGeometry>
                </mxCell>
                <mxCell id="3" value="mainwindow" style="rounded=0;whiteSpace=wrap;html=1;" vertex="1" parent="1">
                    <mxGeometry x="113" y="469" width="120" height="60" as="geometry"/>
                </mxCell>
                <mxCell id="8" style="edgeStyle=none;curved=1;html=1;" edge="1" parent="1" source="4">
                    <mxGeometry relative="1" as="geometry">
                        <mxPoint x="413" y="489" as="targetPoint"/>
                        <Array as="points">
                            <mxPoint x="513" y="389"/>
                        </Array>
                    </mxGeometry>
                </mxCell>
                <mxCell id="4" value="portmodels" style="rounded=0;whiteSpace=wrap;html=1;" vertex="1" parent="1">
                    <mxGeometry x="623" y="459" width="120" height="60" as="geometry"/>
                </mxCell>
                <mxCell id="9" value="#include &quot;mainwindow.h" style="text;html=1;strokeColor=none;fillColor=none;align=center;verticalAlign=middle;whiteSpace=wrap;rounded=0;" vertex="1" parent="1">
                    <mxGeometry x="243" y="319" width="150" height="30" as="geometry"/>
                </mxCell>
                <mxCell id="10" value="#include" style="text;html=1;strokeColor=none;fillColor=none;align=center;verticalAlign=middle;whiteSpace=wrap;rounded=0;" vertex="1" parent="1">
                    <mxGeometry x="483" y="399" width="60" height="30" as="geometry"/>
                </mxCell>
                <mxCell id="14" value="&lt;h1&gt;注意&lt;/h1&gt;&lt;p&gt;appevent不允许被其他#include&lt;/p&gt;" style="text;html=1;strokeColor=none;fillColor=none;spacing=5;spacingTop=-20;whiteSpace=wrap;overflow=hidden;rounded=0;" vertex="1" parent="1">
                    <mxGeometry x="70" y="638" width="540" height="120" as="geometry"/>
                </mxCell>
                <mxCell id="15" value="&lt;div style=&quot;color: rgb(253 , 255 , 241) ; background-color: rgb(39 , 40 , 34) ; font-family: &amp;#34;sarasa gothic hc light&amp;#34; , &amp;#34;consolas&amp;#34; , &amp;#34;courier new&amp;#34; , monospace ; font-size: 14px ; line-height: 19px&quot;&gt;&lt;div&gt;connect&lt;span style=&quot;color: #919288&quot;&gt;(&lt;/span&gt;m_mainwindow&lt;span style=&quot;color: #919288&quot;&gt;,&lt;/span&gt; &lt;span style=&quot;color: #f92672&quot;&gt;&amp;amp;&lt;/span&gt;&lt;span style=&quot;color: #66d9ef&quot;&gt;mainwindow&lt;/span&gt;&lt;span style=&quot;color: #919288&quot;&gt;::&lt;/span&gt;&lt;span style=&quot;color: #a6e22e&quot;&gt;sg_openPort&lt;/span&gt;&lt;span style=&quot;color: #919288&quot;&gt;,&lt;/span&gt; m_serialModel&lt;span style=&quot;color: #919288&quot;&gt;,&lt;/span&gt; &lt;span style=&quot;color: #f92672&quot;&gt;&amp;amp;&lt;/span&gt;&lt;span style=&quot;color: #66d9ef&quot;&gt;serialModel&lt;/span&gt;&lt;span style=&quot;color: #919288&quot;&gt;::&lt;/span&gt;&lt;span style=&quot;color: #a6e22e&quot;&gt;st_openPort&lt;/span&gt;&lt;span style=&quot;color: #919288&quot;&gt;);&lt;/span&gt;&lt;/div&gt;&lt;div&gt;&lt;span style=&quot;color: #919288&quot;&gt;}&lt;/span&gt;&lt;/div&gt;&lt;/div&gt;" style="text;html=1;strokeColor=none;fillColor=none;align=center;verticalAlign=middle;whiteSpace=wrap;rounded=0;" vertex="1" parent="1">
                    <mxGeometry x="283" y="599" width="260" height="30" as="geometry"/>
                </mxCell>
                <mxCell id="17" value="&lt;div style=&quot;background-color: rgb(39 , 40 , 34) ; font-family: &amp;#34;sarasa gothic hc light&amp;#34; , &amp;#34;consolas&amp;#34; , &amp;#34;courier new&amp;#34; , monospace ; font-weight: normal ; font-size: 14px ; line-height: 19px&quot;&gt;&lt;div&gt;&lt;span style=&quot;color: rgb(253 , 255 , 241)&quot;&gt;public singles:&amp;nbsp; &amp;nbsp;&amp;nbsp;&lt;/span&gt;&lt;/div&gt;&lt;div&gt;&lt;span style=&quot;color: rgb(102 , 217 , 239) ; font-style: italic&quot;&gt;void&lt;/span&gt;&lt;span style=&quot;color: rgb(253 , 255 , 241)&quot;&gt; &lt;/span&gt;&lt;span style=&quot;color: rgb(166 , 226 , 46)&quot;&gt;sg_openPort&lt;/span&gt;&lt;span style=&quot;color: rgb(145 , 146 , 136)&quot;&gt;(&lt;/span&gt;&lt;font color=&quot;#66d9ef&quot;&gt;...&lt;/font&gt;&lt;span style=&quot;color: rgb(145 , 146 , 136)&quot;&gt;);&lt;/span&gt;&lt;/div&gt;&lt;/div&gt;" style="text;whiteSpace=wrap;html=1;" vertex="1" parent="1">
                    <mxGeometry x="113" y="549" width="150" height="70" as="geometry"/>
                </mxCell>
                <mxCell id="18" value="&lt;div style=&quot;background-color: rgb(39 , 40 , 34) ; font-family: &amp;#34;sarasa gothic hc light&amp;#34; , &amp;#34;consolas&amp;#34; , &amp;#34;courier new&amp;#34; , monospace ; font-weight: normal ; font-size: 14px ; line-height: 19px&quot;&gt;&lt;div&gt;&lt;span style=&quot;color: rgb(253 , 255 , 241)&quot;&gt;public slot:&amp;nbsp; &amp;nbsp;&amp;nbsp;&lt;/span&gt;&lt;/div&gt;&lt;div&gt;&lt;span style=&quot;color: rgb(102 , 217 , 239) ; font-style: italic&quot;&gt;void&lt;/span&gt;&lt;span style=&quot;color: rgb(253 , 255 , 241)&quot;&gt; &lt;/span&gt;&lt;span style=&quot;color: rgb(166 , 226 , 46)&quot;&gt;st_openPort&lt;/span&gt;&lt;span style=&quot;color: rgb(145 , 146 , 136)&quot;&gt;(&lt;/span&gt;&lt;font color=&quot;#66d9ef&quot;&gt;...&lt;/font&gt;&lt;span style=&quot;color: rgb(145 , 146 , 136)&quot;&gt;);&lt;/span&gt;&lt;span style=&quot;color: rgb(110 , 112 , 102) ; font-style: italic&quot;&gt;&amp;nbsp;&lt;/span&gt;&lt;/div&gt;&lt;/div&gt;" style="text;whiteSpace=wrap;html=1;" vertex="1" parent="1">
                    <mxGeometry x="603" y="539" width="170" height="70" as="geometry"/>
                </mxCell>
                <mxCell id="19" value="class mainwindow;//前置声明&amp;nbsp;" style="text;html=1;strokeColor=none;fillColor=none;align=center;verticalAlign=middle;whiteSpace=wrap;rounded=0;" vertex="1" parent="1">
                    <mxGeometry x="233" y="359" width="190" height="30" as="geometry"/>
                </mxCell>
                <mxCell id="21" value="mainwindow *m_mainwindow;" style="text;html=1;strokeColor=none;fillColor=none;align=center;verticalAlign=middle;whiteSpace=wrap;rounded=0;" vertex="1" parent="1">
                    <mxGeometry x="223" y="399" width="210" height="30" as="geometry"/>
                </mxCell>
                <mxCell id="24" value="&lt;font style=&quot;font-size: 24px&quot;&gt;利用appevent进行信号与槽的中转处理（实现视图层和逻辑模型层的通信交互。）也即是，MVC思想&lt;/font&gt;" style="text;html=1;strokeColor=none;fillColor=none;align=center;verticalAlign=middle;whiteSpace=wrap;rounded=0;" vertex="1" parent="1">
                    <mxGeometry x="144" y="927" width="551" height="131" as="geometry"/>
                </mxCell>
            </root>
        </mxGraphModel>
    </diagram>
</mxfile>